<svg xmlns="http://www.w3.org/2000/svg" width="351" height="402" fill="none" viewBox="0 0 351 312" class="intro__title is-hidden:md-up svg-fix" preserveAspectRatio="none"><path fill="#fff" d="M253.237 132 246 2h23.32l2.412 96.937.536 20.329h3.753l.804-20.329L281.649 2h32.702l5.092 96.937.536 20.329h3.753l.536-20.329L326.68 2H350l-6.969 130h-38.33l-4.021-93.212-.536-24.054h-4.02l-.536 24.054L291.567 132zM216 133c-16.19 0-25-6.454-25-18.315V18.49C191 6.454 199.81 0 216 0s25 6.454 25 18.49v96.195c0 11.861-8.81 18.315-25 18.315m0-14.129c3.095 0 4.524-1.919 4.524-5.233V19.362c0-3.314-1.429-5.233-4.524-5.233s-4.762 1.919-4.762 5.233v94.276c0 3.314 1.667 5.233 4.762 5.233M167.938 118.785H186V132h-38V2h19.938zM124.938 116.529H143V131h-38V2h19.938zM71.5 133c-15.867 0-24.5-7.384-24.5-20.955v-90.89C47 7.383 55.633 0 71.5 0S96 7.384 96 21.154v90.891C96 125.616 87.367 133 71.5 133m0-16.165c3.033 0 4.433-2.195 4.433-5.987V22.152c0-3.792-1.4-5.987-4.433-5.987s-4.667 2.195-4.667 5.987v88.696c0 3.792 1.634 5.987 4.667 5.987M41 15.215H20.38v36.054h18.222v13.214H20.38V132H0V2h41zM351 152v13.227h-12.3V290h-21.155V165.227H305V152zM224.513 267l-2.583-48.522h-9.861L209.486 267H190l7.513-115h39.208L244 267zm-11.74-61.454h8.453l-1.879-26.179-.469-14.908h-3.757l-.469 14.908zM160 170v-18h20v18zM253 312V152h23.853c15.596 0 24.082 7.162 24.082 20.13v23.614c0 12.775-6.422 19.743-18.348 19.743h-1.377v2.323h13.533L303 312h-19.496l-6.422-84.706h-4.358V312zm19.724-99.223h4.129c2.981 0 4.587-2.129 4.587-5.613v-33.873c0-3.677-1.606-5.613-4.587-5.613h-4.129z"></path></svg>