<svg class="img-full is-hidden:md-up svg-fix" style="transform: scaleY(0.7); transform-origin: center top;" xmlns="http://www.w3.org/2000/svg" width="350" height="420" fill="none" viewBox="0 0 350 420"><path fill="#000" d="M176.086 361V190.9h25.272c16.524 0 25.515 8.991 25.515 25.272v119.556c0 16.281-8.991 25.272-25.515 25.272h-25.272Zm20.655-19.683h4.617c3.159 0 4.86-2.43 4.86-6.804V217.63c0-4.617-1.701-7.047-4.86-7.047h-4.617v130.734Z"></path><path data-char-mobile="" fill="#000" d="M117.869 390V191h25.285c16.532 0 25.527 10.519 25.527 29.566v34.683c0 18.762-6.807 28.997-19.449 28.997h-1.459v3.411h14.344L170.869 390h-20.665l-6.807-88.413h-4.62V390h-20.908Zm20.908-109.734h4.377c3.16 0 4.862-3.127 4.862-8.245v-49.75c0-5.401-1.702-8.244-4.862-8.244h-4.377v66.239Z"></path><path data-char-mobile="" fill="#000" d="m91.66 420-2.678-75.243H78.756L76.078 420H55.869l7.791-229h40.661l7.548 229H91.66ZM79.487 317.931h8.765l-1.948-54.305-.487-46.782h-3.896l-.487 46.782-1.947 54.305Z"></path><path style="transform:translateY(-2px);" fill="#000" d="M25.758 365.96C8.991 365.96 0 356.969 0 340.445V216.758C0 199.991 8.991 191 25.758 191c17.01 0 25.758 8.991 25.029 25.758l-1.944 46.17H28.188l1.944-44.955c.243-4.617-1.215-7.29-4.374-7.29s-4.86 2.673-4.86 7.29v121.014c0 4.617 1.701 7.29 4.86 7.29 2.916 0 4.374-2.673 4.374-7.29v-48.6h20.655v50.058c0 16.524-8.748 25.515-25.029 25.515Z"></path><path style="transform:translateY(-2px);" fill="#000" d="M260.555 175.86c-16.524 0-25.272-8.991-25.272-25.515v-35.721h20.655v34.263c0 4.617 1.701 7.29 4.617 7.29 3.159 0 4.617-2.673 4.617-7.29v-22.113c0-29.646-29.889-35.478-29.889-72.414V26.658C235.283 9.89 244.274.9 261.041.9c17.253 0 26.001 8.99 25.029 25.758l-1.944 39.366h-20.655l2.187-38.151c.243-4.617-1.458-7.29-4.617-7.29s-4.86 2.673-4.86 7.29v24.543c0 29.16 29.889 35.964 29.889 72.414v25.515c0 16.524-8.748 25.515-25.515 25.515Z"></path><path fill="#000" d="M194.9 173.43c-12.15 0-18.468-9.477-18.225-26.973L178.619.9h20.898l-2.187 145.557c0 4.617 1.701 7.29 4.86 7.29 2.916 0 4.617-2.673 4.617-7.29V.9h20.655V171h-12.393l-1.458-29.403h-3.402c1.458 20.655-3.888 31.833-15.309 31.833Z"></path><path fill="#000" d="m115.404 171 3.159-54.432c.729-16.524 6.318-24.543 16.038-24.543h4.617V89.11h-17.739L116.862.9h20.655l3.402 75.087h1.458c2.916 0 4.374-2.187 4.617-7.047L149.91.9h20.655l-2.673 53.217c-.729 16.524-6.318 24.786-16.038 24.786h-4.86v2.916h17.253L170.565 171h-20.898l-4.374-76.059h-1.458c-2.916 0-4.374 2.43-4.617 7.533L136.059 171h-20.655Z"></path><path fill="#000" d="M70.615 171V.9h41.796v19.683h-21.14V73.8h18.71v19.683h-18.71v57.834h21.14V171H70.615Z"></path><path fill="#000" d="M.373 171V.9h31.104l9.72 150.417h3.402l-.972-34.263L40.954.9h20.898V171H30.748L19.327 20.583h-3.645l1.458 34.263L21.028 171H.373Z"></path></svg>